<svg xmlns="http://www.w3.org/2000/svg" version="1.1" xmlns:xlink="http://www.w3.org/1999/xlink" xmlns:svgjs="http://svgjs.dev/svgjs" width="2000" height="1500" viewBox="0 0 2000 1500"><rect width="2000" height="1500" fill="#222831"></rect><g transform="matrix(0.75,0,0,0.75,249.090909090909,461.57845897770846)"><svg viewBox="0 0 396 152" data-background-color="#222831" preserveAspectRatio="xMidYMid meet" height="767" width="2000" xmlns="http://www.w3.org/2000/svg" xmlns:xlink="http://www.w3.org/1999/xlink"><g id="tight-bounds" transform="matrix(1,0,0,1,0.24000000000003752,0.21047237790233453)"><svg viewBox="0 0 395.5199999999999 151.57905524419533" height="151.57905524419533" width="395.5199999999999"><g><svg viewBox="0 0 395.52000000000004 151.57905524419536" height="151.57905524419533" width="395.5199999999999"><g><svg viewBox="0 0 395.52000000000004 151.57905524419536" height="151.57905524419536" width="395.52000000000004"><g id="textblocktransform"><svg viewBox="0 0 395.52000000000004 151.57905524419536" height="151.57905524419536" width="395.52000000000004" id="textblock"><g><svg viewBox="0 0 395.52000000000004 151.57905524419536" height="151.57905524419536" width="395.52000000000004"><g transform="matrix(1,0,0,1,0,0)"><svg width="395.52000000000004" viewBox="2.25 -35.06 91.47 35.06" height="151.57905524419536" data-palette-color="#ffd369"><path d="M27.32-35.06L30.25-35.06Q30.71-35.06 31.08-34.77 31.45-34.47 31.45-33.64L31.45-33.64 31.45-1.81Q31.45 0 29.74 0L29.74 0 21.26 0Q20.46 0 19.93-0.32 19.41-0.63 18.99-1.05L18.99-1.05 6.49-14.11Q6.71-10.94 6.93-8.28L6.93-8.28Q7.01-7.13 7.1-6.01 7.2-4.88 7.28-3.91 7.35-2.93 7.41-2.2 7.47-1.46 7.5-1.15L7.5-1.15Q7.54-0.73 7.36-0.37 7.18 0 6.52 0L6.52 0 3.44 0Q3 0 2.62-0.28 2.25-0.56 2.25-1.39L2.25-1.39 2.25-33.25Q2.25-35.06 4.25-35.06L4.25-35.06 12.5-35.06Q13.43-35.06 14.05-34.67 14.67-34.28 15.31-33.64L15.31-33.64 27.2-21.85Q26.95-24.76 26.76-27.22L26.76-27.22Q26.66-28.27 26.57-29.32 26.49-30.37 26.42-31.29 26.34-32.2 26.28-32.89 26.22-33.57 26.2-33.91L26.2-33.91Q26.15-34.3 26.35-34.68 26.56-35.06 27.32-35.06L27.32-35.06ZM27.2-18.9L13.62-32.35Q13.18-32.79 12.9-32.9 12.62-33.01 12.13-33.01L12.13-33.01 10.4-33.01 27.2-16.31 27.2-18.9ZM35.94-3.39L35.94-31.64Q35.94-32.5 36.08-33.13 36.23-33.76 36.64-34.19 37.06-34.62 37.79-34.84 38.52-35.06 39.69-35.06L39.69-35.06 50.58-35.06Q52.27-35.06 53.93-34.85 55.59-34.64 57.11-34.16 58.64-33.67 59.95-32.89 61.25-32.1 62.22-30.94 63.18-29.79 63.73-28.23 64.28-26.68 64.28-24.66L64.28-24.66Q64.28-21.66 63.46-19.59 62.64-17.53 61.25-16.19 59.86-14.84 58.02-14.14 56.17-13.43 54.15-13.11L54.15-13.11 54.15-3.96Q54.15-3.39 54.05-2.71 53.95-2.03 53.56-1.43 53.17-0.83 52.37-0.42 51.56 0 50.14 0L50.14 0 39.69 0Q38.52 0 37.79-0.22 37.06-0.44 36.64-0.85 36.23-1.27 36.08-1.9 35.94-2.54 35.94-3.39L35.94-3.39ZM60.84-24.29L60.84-24.29Q60.84-25.76 60.45-26.99 60.06-28.22 59.25-29.15 58.44-30.08 57.18-30.69 55.91-31.3 54.15-31.52L54.15-31.52 54.15-16.36Q55.91-16.63 57.18-17.33 58.44-18.04 59.25-19.09 60.06-20.14 60.45-21.47 60.84-22.8 60.84-24.29ZM52.07-3.61L52.07-31.81Q51.58-31.84 51.06-31.85 50.53-31.86 50.17-31.86L50.17-31.86 50.17-2.05Q50.75-2.05 51.12-2.09 51.49-2.12 51.71-2.28 51.93-2.44 52-2.75 52.07-3.05 52.07-3.61L52.07-3.61ZM67.52-3.39L67.52-31.64Q67.52-32.5 67.67-33.13 67.82-33.76 68.23-34.19 68.65-34.62 69.38-34.84 70.11-35.06 71.28-35.06L71.28-35.06 82.17-35.06Q83.59-35.06 84.33-34.64 85.08-34.23 85.38-33.61 85.69-32.98 85.71-32.29 85.74-31.59 85.74-31.01L85.74-31.01 85.74-3.34Q87.42-3.59 88.86-3.78L88.86-3.78Q89.47-3.86 90.1-3.94 90.72-4.03 91.24-4.1 91.77-4.17 92.18-4.21 92.6-4.25 92.79-4.25L92.79-4.25Q93.21-4.25 93.46-4.09 93.72-3.93 93.72-3.44L93.72-3.44 93.72-1.2Q93.72-0.76 93.34-0.38 92.96 0 92.13 0L92.13 0 71.24 0Q70.09 0 69.37-0.22 68.65-0.44 68.23-0.85 67.82-1.27 67.67-1.9 67.52-2.54 67.52-3.39L67.52-3.39ZM83.66-3.08L83.66-31.45Q83.66-31.98 83.59-32.3 83.52-32.62 83.3-32.78 83.08-32.93 82.71-32.97 82.34-33.01 81.76-33.01L81.76-33.01 81.76-2.78 83.66-3.08Z" opacity="1" transform="matrix(1,0,0,1,0,0)" fill="#ffd369" class="wordmark-text-0" data-fill-palette-color="primary" id="text-0"></path></svg></g></svg></g></svg></g></svg></g><g></g></svg></g><defs></defs></svg><rect width="395.5199999999999" height="151.57905524419533" fill="none" stroke="none" visibility="hidden"></rect></g></svg></g></svg>