<?xml version="1.0" encoding="UTF-8" standalone="no"?>
<svg
   version="1.1"
   width="16"
   height="16"
   viewBox="0 0 16 16"
   id="svg7"
   sodipodi:docname="logo.svg"
   xmlns:inkscape="http://www.inkscape.org/namespaces/inkscape"
   xmlns:sodipodi="http://sodipodi.sourceforge.net/DTD/sodipodi-0.dtd"
   xmlns="http://www.w3.org/2000/svg"
   xmlns:svg="http://www.w3.org/2000/svg">
  <defs
     id="defs7" />
  <sodipodi:namedview
     id="namedview7"
     pagecolor="#505050"
     bordercolor="#eeeeee"
     borderopacity="1"
     inkscape:showpageshadow="0"
     inkscape:pageopacity="0"
     inkscape:pagecheckerboard="0"
     inkscape:deskcolor="#505050" />
  <rect
     width="19.488817"
     height="18.741613"
     fill="#222831"
     id="rect1"
     x="-1.6704388"
     y="-0.72973561"
     style="stroke-width:0.0110341" />
  <g
     transform="matrix(0.0073083,0,0,0.0073083,0.7880287,5.3960086)"
     id="g6">
    <svg
       viewBox="0 0 396 152"
       data-background-color="#222831"
       preserveAspectRatio="xMidYMid"
       height="767"
       width="2000"
       version="1.1"
       id="svg6">
      <g
         id="tight-bounds"
         transform="translate(0.24,0.21047238)">
        <svg
           viewBox="0 0 395.52 151.57906"
           height="151.57906"
           width="395.51999"
           version="1.1"
           id="svg5">
          <g
             id="g5">
            <svg
               viewBox="0 0 395.52 151.57906"
               height="151.57906"
               width="395.51999"
               version="1.1"
               id="svg4">
              <g
                 id="g3">
                <svg
                   viewBox="0 0 395.52 151.57906"
                   height="151.57906"
                   width="395.51999"
                   version="1.1"
                   id="svg3">
                  <g
                     id="textblocktransform">
                    <svg
                       viewBox="0 0 395.52 151.57906"
                       height="151.57906"
                       width="395.51999"
                       id="textblock"
                       version="1.1">
                      <g
                         id="g2">
                        <svg
                           viewBox="0 0 395.52 151.57906"
                           height="151.57906"
                           width="395.51999"
                           version="1.1"
                           id="svg2">
                          <g
                             id="g1">
                            <svg
                               width="395.51999"
                               viewBox="2.25 -35.06 91.47 35.06"
                               height="151.57906"
                               data-palette-color="#ffd369"
                               version="1.1"
                               id="svg1">
                              <path
                                 d="m 27.32,-35.06 h 2.93 q 0.46,0 0.83,0.29 0.37,0.3 0.37,1.13 v 0 31.83 Q 31.45,0 29.74,0 v 0 h -8.48 q -0.8,0 -1.33,-0.32 -0.52,-0.31 -0.94,-0.73 v 0 L 6.49,-14.11 q 0.22,3.17 0.44,5.83 v 0 q 0.08,1.15 0.17,2.27 0.1,1.13 0.18,2.1 0.07,0.98 0.13,1.71 0.06,0.74 0.09,1.05 v 0 Q 7.54,-0.73 7.36,-0.37 7.18,0 6.52,0 V 0 H 3.44 Q 3,0 2.62,-0.28 2.25,-0.56 2.25,-1.39 v 0 -31.86 q 0,-1.81 2,-1.81 v 0 h 8.25 q 0.93,0 1.55,0.39 0.62,0.39 1.26,1.03 v 0 l 11.89,11.79 q -0.25,-2.91 -0.44,-5.37 v 0 q -0.1,-1.05 -0.19,-2.1 -0.08,-1.05 -0.15,-1.97 -0.08,-0.91 -0.14,-1.6 -0.06,-0.68 -0.08,-1.02 v 0 q -0.05,-0.39 0.15,-0.77 0.21,-0.38 0.97,-0.38 z M 27.2,-18.9 13.62,-32.35 q -0.44,-0.44 -0.72,-0.55 -0.28,-0.11 -0.77,-0.11 v 0 H 10.4 l 16.8,16.7 z m 8.74,15.51 v -28.25 q 0,-0.86 0.14,-1.49 0.15,-0.63 0.56,-1.06 0.42,-0.43 1.15,-0.65 0.73,-0.22 1.9,-0.22 v 0 h 10.89 q 1.69,0 3.35,0.21 1.66,0.21 3.18,0.69 1.53,0.49 2.84,1.27 1.3,0.79 2.27,1.95 0.96,1.15 1.51,2.71 0.55,1.55 0.55,3.57 v 0 q 0,3 -0.82,5.07 -0.82,2.06 -2.21,3.4 -1.39,1.35 -3.23,2.05 -1.85,0.71 -3.87,1.03 v 0 9.15 q 0,0.57 -0.1,1.25 -0.1,0.68 -0.49,1.28 -0.39,0.6 -1.19,1.01 Q 51.56,0 50.14,0 V 0 H 39.69 q -1.17,0 -1.9,-0.22 -0.73,-0.22 -1.15,-0.63 -0.41,-0.42 -0.56,-1.05 -0.14,-0.64 -0.14,-1.49 z m 24.9,-20.9 v 0 q 0,-1.47 -0.39,-2.7 -0.39,-1.23 -1.2,-2.16 -0.81,-0.93 -2.07,-1.54 -1.27,-0.61 -3.03,-0.83 v 0 15.16 q 1.76,-0.27 3.03,-0.97 1.26,-0.71 2.07,-1.76 0.81,-1.05 1.2,-2.38 0.39,-1.33 0.39,-2.82 z m -8.77,20.68 v -28.2 q -0.49,-0.03 -1.01,-0.04 -0.53,-0.01 -0.89,-0.01 v 0 29.81 q 0.58,0 0.95,-0.04 0.37,-0.03 0.59,-0.19 0.22,-0.16 0.29,-0.47 0.07,-0.3 0.07,-0.86 z m 15.45,0.22 v -28.25 q 0,-0.86 0.15,-1.49 0.15,-0.63 0.56,-1.06 0.42,-0.43 1.15,-0.65 0.73,-0.22 1.9,-0.22 v 0 h 10.89 q 1.42,0 2.16,0.42 0.75,0.41 1.05,1.03 0.31,0.63 0.33,1.32 0.03,0.7 0.03,1.28 v 0 27.67 q 1.68,-0.25 3.12,-0.44 v 0 q 0.61,-0.08 1.24,-0.16 0.62,-0.09 1.14,-0.16 0.53,-0.07 0.94,-0.11 0.42,-0.04 0.61,-0.04 v 0 q 0.42,0 0.67,0.16 0.26,0.16 0.26,0.65 v 0 2.24 q 0,0.44 -0.38,0.82 Q 92.96,0 92.13,0 V 0 H 71.24 Q 70.09,0 69.37,-0.22 68.65,-0.44 68.23,-0.85 67.82,-1.27 67.67,-1.9 67.52,-2.54 67.52,-3.39 Z m 16.14,0.31 v -28.37 q 0,-0.53 -0.07,-0.85 -0.07,-0.32 -0.29,-0.48 -0.22,-0.15 -0.59,-0.19 -0.37,-0.04 -0.95,-0.04 v 0 30.23 z"
                                 opacity="1"
                                 fill="#ffd369"
                                 class="wordmark-text-0"
                                 data-fill-palette-color="primary"
                                 id="text-0" />
                            </svg>
                          </g>
                        </svg>
                      </g>
                    </svg>
                  </g>
                </svg>
              </g>
              <g
                 id="g4" />
            </svg>
          </g>
          <defs
             id="defs5" />
        </svg>
        <rect
           width="395.51999"
           height="151.57906"
           fill="none"
           stroke="none"
           visibility="hidden"
           id="rect5"
           x="0"
           y="0" />
      </g>
    </svg>
  </g>
</svg>
